# xmcd
#
# Track frame offsets:
#	150
#	9443
#	21975
#	33805
#	46918
#	58156
#	70509
#	81992
#	93699
#	102291
#	115489
#	128808
#
# Disc length: 1876 seconds
#
# Revision: 1
# Processed by: cddbd v1.5.2PL0 Copyright (c) Steve Scherf et al.
# Submitted via: audiograbber 1.83.01
#
DISCID=9a07520c
DTITLE=Brenda Lee - By Request
DYEAR=1964
DGENRE=Country
TTITLE0=More
TTITLE1=Days Of Wine and Roses
TTITLE2=Danke Schoen
TTITLE3=Tammy
TTITLE4=Why Don't You Believe Me
TTITLE5=I Love You Because
TTITLE6=As Usual
TTITLE7=Blue Velvet
TTITLE8=My Whole World Is Falling Down
TTITLE9=I Wonder
TTITLE10=I'm Confessin'
TTITLE11=The Grass Is Greener
EXTD=
EXTT0=
EXTT1=
EXTT2=
EXTT3=
EXTT4=
EXTT5=
EXTT6=
EXTT7=
EXTT8=
EXTT9=
EXTT10=
EXTT11=
PLAYORDER=
